<svg xmlns="http://www.w3.org/2000/svg" viewBox="0 0 900 520"><defs><linearGradient id="bg" x1="0" y1="0" x2="1" y2="1"><stop stop-color="#121212"/><stop offset="1" stop-color="#303030"/></linearGradient></defs><rect width="900" height="520" rx="24" fill="url(#bg)"/><text x="48" y="70" fill="#fff" font-family="Arial" font-size="28" font-weight="800">HARDWARE &amp; TOOLS</text><rect x="48" y="84" width="65" height="5" fill="#ffd000"/><g fill="#d7d7d7" stroke="#888" stroke-width="5"><rect x="80" y="170" width="115" height="24" rx="7" transform="rotate(-12 80 170)"/><rect x="150" y="250" width="120" height="25" rx="7" transform="rotate(8 150 250)"/><path d="M310 170l55 55-20 20-55-55z"/><path d="M390 285l70-70 25 25-70 70z"/><circle cx="530" cy="170" r="25"/><rect x="550" y="150" width="120" height="42" rx="8"/><path d="M650 260h100v25H650z"/><path d="M690 245l35-35 20 20-35 35z"/></g><g fill="#ffd000"><rect x="260" y="145" width="85" height="18" rx="7" transform="rotate(-20 260 145)"/><rect x="480" y="330" width="22" height="100" rx="9"/><path d="M470 330h42l-10-24h-22z"/></g><g font-family="Arial" font-weight="800" text-anchor="middle"><rect x="90" y="390" width="270" height="70" rx="12" fill="#fff"/><text x="225" y="435" fill="#111" font-size="27">VARMORA</text><rect x="400" y="390" width="410" height="70" rx="12" fill="#fff"/><text x="605" y="435" fill="#173a70" font-size="24">QUALITY HARDWARE</text></g></svg>