<svg xmlns="http://www.w3.org/2000/svg" viewBox="0 0 1400 1120"><rect width="1400" height="1120" fill="#fff"/><g stroke="#b8b8b8" stroke-width="7"><g><ellipse cx="420" cy="170" rx="245" ry="55" fill="#1453a6"/><rect x="175" y="170" width="490" height="360" rx="35" fill="#f4f4f4"/><ellipse cx="420" cy="170" rx="245" ry="55" fill="#0b4da2"/><path d="M175 340h490v190H175z" fill="#174f9d"/></g><g><ellipse cx="900" cy="235" rx="245" ry="55" fill="#f56a16"/><rect x="655" y="235" width="490" height="360" rx="35" fill="#f4f4f4"/><ellipse cx="900" cy="235" rx="245" ry="55" fill="#f56a16"/><path d="M655 405h490v190H655z" fill="#f26718"/></g><g><ellipse cx="475" cy="535" rx="180" ry="45" fill="#08a4dc"/><rect x="295" y="535" width="360" height="300" rx="28" fill="#f8f8f8"/><path d="M295 670h360v165H295z" fill="#08a4dc"/></g><g><ellipse cx="785" cy="590" rx="160" ry="40" fill="#f5ae00"/><rect x="625" y="590" width="320" height="260" rx="25" fill="#f8f8f8"/><path d="M625 705h320v145H625z" fill="#f5ae00"/></g><g><ellipse cx="1080" cy="560" rx="145" ry="38" fill="#32a84e"/><rect x="935" y="560" width="290" height="250" rx="24" fill="#f8f8f8"/><path d="M935 670h290v140H935z" fill="#32a84e"/></g></g><g font-family="Arial" font-weight="900" text-anchor="middle" fill="#173f77"><text x="420" y="400" font-size="54">PREMIUM QUALITY</text><text x="420" y="470" font-size="74">PAINT</text><text x="900" y="465" font-size="74">PAINT</text><text x="475" y="705" font-size="42">PAINT</text><text x="785" y="745" font-size="42">PAINT</text><text x="1080" y="715" font-size="42">PAINT</text></g><g fill="#fff" font-family="Arial" font-weight="700" text-anchor="middle"><text x="420" y="445" font-size="28">INTERIOR • EXTERIOR</text><text x="900" y="510" font-size="28">INTERIOR • EXTERIOR</text></g><g transform="translate(70 850)"><rect width="510" height="190" rx="18" fill="#202020"/><rect x="60" y="50" width="300" height="45" rx="15" fill="#101010"/><path d="M95 90l55 35 150 0 55-35" fill="#f3f3f3"/><path d="M155 125h145v45H155z" fill="#fff"/><path d="M300 120h120" stroke="#1672d8" stroke-width="22" stroke-linecap="round"/><text x="255" y="175" fill="#ffd000" font-size="22">PAINT ROLLER</text></g><g stroke-linecap="round"><path d="M760 1030l120-170" stroke="#c77b3a" stroke-width="35"/><path d="M850 900l105-115" stroke="#d72b1d" stroke-width="32"/><path d="M930 900l105-120" stroke="#1672d8" stroke-width="32"/><path d="M1020 910l105-125" stroke="#f5ae00" stroke-width="32"/></g><g font-family="Arial" font-weight="900" text-anchor="middle"><rect x="960" y="55" width="350" height="100" rx="18" fill="#fff" stroke="#ddd"/><text x="1135" y="120" fill="#173f77" font-size="42">ASIAN PAINTS</text></g></svg>